<svg xmlns="http://www.w3.org/2000/svg" viewBox="0 0 720 420" role="img" aria-labelledby="title desc">
  <title id="title">Land Use Bibliometric Diagram</title>
  <desc id="desc">Clean abstract cover for land use change and bibliometric trend research.</desc>
  <defs>
    <linearGradient id="bg" x1="0" y1="0" x2="1" y2="1">
      <stop offset="0" stop-color="#f8fbf8"/>
      <stop offset="1" stop-color="#eef6f0"/>
    </linearGradient>
    <filter id="soft" x="-20%" y="-20%" width="140%" height="140%">
      <feDropShadow dx="0" dy="10" stdDeviation="14" flood-color="#012f63" flood-opacity=".09"/>
    </filter>
  </defs>
  <rect width="720" height="420" rx="30" fill="url(#bg)"/>
  <rect x="70" y="88" width="580" height="256" rx="26" fill="#fff" stroke="#d9e6dc" filter="url(#soft)"/>
  <g transform="translate(126 130)">
    <path d="M42 108 C68 38, 160 34, 200 98 C238 160, 194 228, 120 226 C58 224, 16 170, 42 108Z" fill="#cfead2" stroke="#68a978" stroke-width="7"/>
    <path d="M88 96 L142 62 L190 104 L170 176 L96 180 Z" fill="#eef7d8" stroke="#9ab663" stroke-width="5"/>
  </g>
  <g transform="translate(420 120)">
    <g stroke="#82adcf" stroke-width="5" opacity=".92">
      <line x1="86" y1="72" x2="22" y2="118"/>
      <line x1="86" y1="72" x2="158" y2="120"/>
      <line x1="86" y1="72" x2="108" y2="166"/>
      <line x1="22" y1="118" x2="108" y2="166"/>
      <line x1="158" y1="120" x2="108" y2="166"/>
    </g>
    <g fill="#fff" stroke-width="7">
      <circle cx="86" cy="72" r="44" stroke="#fe667b"/>
      <circle cx="22" cy="118" r="30" stroke="#82adcf"/>
      <circle cx="158" cy="120" r="30" stroke="#82adcf"/>
      <circle cx="108" cy="166" r="30" stroke="#82adcf"/>
    </g>
  </g>
  <path d="M118 374 H602" stroke="#d5e2ee" stroke-width="10" stroke-linecap="round"/>
  <g fill="#fe667b">
    <circle cx="156" cy="374" r="14"/>
    <circle cx="330" cy="374" r="14"/>
    <circle cx="500" cy="374" r="14"/>
    <circle cx="584" cy="374" r="14"/>
  </g>
  <text x="360" y="72" text-anchor="middle" fill="#012f63" font-family="Arial, sans-serif" font-size="28" font-weight="700">Land Use Trends</text>
  <text x="218" y="322" text-anchor="middle" fill="#50627a" font-family="Arial, sans-serif" font-size="20">land change</text>
  <text x="520" y="322" text-anchor="middle" fill="#50627a" font-family="Arial, sans-serif" font-size="20">keyword network</text>
</svg>
