<svg xmlns="http://www.w3.org/2000/svg" viewBox="0 0 720 420" role="img" aria-labelledby="title desc">
  <title id="title">Infrastructure REITs Network-LSTM Diagram</title>
  <desc id="desc">Clean abstract cover for infrastructure REITs and Network-LSTM research.</desc>
  <defs>
    <linearGradient id="bg" x1="0" y1="0" x2="1" y2="1">
      <stop offset="0" stop-color="#f8fbff"/>
      <stop offset="1" stop-color="#eef3f8"/>
    </linearGradient>
    <filter id="soft" x="-20%" y="-20%" width="140%" height="140%">
      <feDropShadow dx="0" dy="10" stdDeviation="14" flood-color="#012f63" flood-opacity=".10"/>
    </filter>
  </defs>
  <rect width="720" height="420" rx="30" fill="url(#bg)"/>
  <rect x="70" y="88" width="580" height="256" rx="26" fill="#fff" stroke="#dbe7f4" filter="url(#soft)"/>
  <g transform="translate(128 128)">
    <g stroke="#82adcf" stroke-width="12" stroke-linecap="round">
      <line x1="46" y1="90" x2="142" y2="44"/>
      <line x1="46" y1="90" x2="116" y2="180"/>
      <line x1="142" y1="44" x2="224" y2="124"/>
      <line x1="116" y1="180" x2="224" y2="124"/>
    </g>
    <g fill="#fe667b" stroke="#fff" stroke-width="7">
      <circle cx="46" cy="90" r="28"/>
      <circle cx="142" cy="44" r="28"/>
      <circle cx="116" cy="180" r="28"/>
      <circle cx="224" cy="124" r="28"/>
    </g>
  </g>
  <g transform="translate(400 132)">
    <path d="M12 170 C54 72, 108 192, 154 94 S236 118, 270 48" fill="none" stroke="#fe667b" stroke-width="12" stroke-linecap="round"/>
    <g fill="#e8f3fb" stroke="#82adcf" stroke-width="5">
      <rect x="30" y="34" width="62" height="48" rx="12"/>
      <rect x="118" y="76" width="62" height="48" rx="12"/>
      <rect x="206" y="34" width="62" height="48" rx="12"/>
    </g>
    <path d="M92 58 H118 M180 100 H206" stroke="#012f63" stroke-width="5" stroke-linecap="round" stroke-dasharray="8 8"/>
  </g>
  <path d="M154 374 H566" stroke="#d5e2ee" stroke-width="10" stroke-linecap="round"/>
  <circle cx="360" cy="374" r="17" fill="#fe667b"/>
  <text x="360" y="72" text-anchor="middle" fill="#012f63" font-family="Arial, sans-serif" font-size="28" font-weight="700">Network-LSTM</text>
  <text x="224" y="322" text-anchor="middle" fill="#50627a" font-family="Arial, sans-serif" font-size="20">rail network</text>
  <text x="528" y="322" text-anchor="middle" fill="#50627a" font-family="Arial, sans-serif" font-size="20">debt dynamics</text>
</svg>
