<svg xmlns="http://www.w3.org/2000/svg" viewBox="0 0 720 420" role="img" aria-labelledby="title desc">
  <title id="title">Infrastructure REITs Network-LSTM Diagram</title>
  <desc id="desc">Simplified network and forecasting diagram for infrastructure REITs research.</desc>
  <defs>
    <linearGradient id="bg" x1="0" y1="0" x2="1" y2="1">
      <stop offset="0" stop-color="#f8fbff"/>
      <stop offset="1" stop-color="#eef3f8"/>
    </linearGradient>
    <filter id="shadow" x="-20%" y="-20%" width="140%" height="140%">
      <feDropShadow dx="0" dy="10" stdDeviation="12" flood-color="#012f63" flood-opacity=".12"/>
    </filter>
  </defs>
  <rect width="720" height="420" rx="28" fill="url(#bg)"/>
  <g filter="url(#shadow)">
    <rect x="54" y="98" width="612" height="238" rx="22" fill="#fff" stroke="#dbe7f4"/>
  </g>
  <g transform="translate(98 136)">
    <g stroke="#7aa6c8" stroke-width="10" stroke-linecap="round">
      <line x1="42" y1="82" x2="122" y2="34"/>
      <line x1="42" y1="82" x2="118" y2="154"/>
      <line x1="122" y1="34" x2="210" y2="104"/>
      <line x1="118" y1="154" x2="210" y2="104"/>
    </g>
    <g fill="#fe667b" stroke="#fff" stroke-width="6">
      <circle cx="42" cy="82" r="24"/>
      <circle cx="122" cy="34" r="24"/>
      <circle cx="118" cy="154" r="24"/>
      <circle cx="210" cy="104" r="24"/>
    </g>
  </g>
  <path d="M392 276 C430 184, 478 286, 520 198 S610 212, 646 154" fill="none" stroke="#fe667b" stroke-width="10" stroke-linecap="round"/>
  <g fill="#eef6ff" stroke="#7aa6c8" stroke-width="4">
    <rect x="392" y="150" width="56" height="42" rx="10"/>
    <rect x="470" y="178" width="56" height="42" rx="10"/>
    <rect x="548" y="150" width="56" height="42" rx="10"/>
  </g>
  <path d="M448 171 H470 M526 199 H548" stroke="#012f63" stroke-width="4" stroke-dasharray="7 6"/>
  <rect x="106" y="350" width="508" height="28" rx="14" fill="#e8f0f8"/>
  <circle cx="360" cy="364" r="15" fill="#fe667b"/>
  <text x="252" y="70" fill="#012f63" font-family="Arial, sans-serif" font-size="28" font-weight="700">Network-LSTM</text>
</svg>
