<svg xmlns="http://www.w3.org/2000/svg" viewBox="0 0 720 420" role="img" aria-labelledby="title desc">
  <title id="title">Rural Revitalization Land Improvement Diagram</title>
  <desc id="desc">Simplified land improvement and public value diagram for rural revitalization research.</desc>
  <defs>
    <linearGradient id="bg" x1="0" y1="0" x2="1" y2="1">
      <stop offset="0" stop-color="#fbfbf5"/>
      <stop offset="1" stop-color="#eef6ed"/>
    </linearGradient>
    <filter id="shadow" x="-20%" y="-20%" width="140%" height="140%">
      <feDropShadow dx="0" dy="10" stdDeviation="12" flood-color="#012f63" flood-opacity=".10"/>
    </filter>
  </defs>
  <rect width="720" height="420" rx="28" fill="url(#bg)"/>
  <g filter="url(#shadow)">
    <rect x="60" y="102" width="600" height="230" rx="22" fill="#fff" stroke="#d9e6dc"/>
  </g>
  <g transform="translate(106 154)">
    <rect x="0" y="78" width="166" height="76" rx="12" fill="#d9efd8" stroke="#87b783" stroke-width="4"/>
    <path d="M22 104 H144 M22 132 H144 M58 80 V154 M112 80 V154" stroke="#a3c67a" stroke-width="4"/>
    <path d="M28 72 L82 26 L138 72 Z" fill="#f6d7a7" stroke="#c8944e" stroke-width="4"/>
    <rect x="54" y="72" width="60" height="54" rx="4" fill="#fff6e6" stroke="#c8944e" stroke-width="4"/>
  </g>
  <g transform="translate(310 150)">
    <circle cx="78" cy="84" r="66" fill="#eef6ff" stroke="#7aa6c8" stroke-width="5"/>
    <path d="M78 36 V132 M30 84 H126" stroke="#7aa6c8" stroke-width="7" stroke-linecap="round"/>
    <circle cx="78" cy="84" r="22" fill="#fe667b"/>
  </g>
  <g transform="translate(520 158)">
    <path d="M20 124 C38 58, 88 42, 136 18 C146 84, 126 132, 64 146 Z" fill="#cfead2" stroke="#75aa7b" stroke-width="5"/>
    <path d="M66 136 C82 96, 102 70, 128 34" fill="none" stroke="#75aa7b" stroke-width="6" stroke-linecap="round"/>
    <circle cx="56" cy="80" r="20" fill="#fe667b" opacity=".9"/>
  </g>
  <path d="M276 240 H324 M456 240 H516" stroke="#fe667b" stroke-width="7" stroke-linecap="round"/>
  <text x="208" y="72" fill="#012f63" font-family="Arial, sans-serif" font-size="28" font-weight="700">Land Improvement</text>
</svg>
