<svg xmlns="http://www.w3.org/2000/svg" viewBox="0 0 720 420" role="img" aria-labelledby="title desc">
  <title id="title">Stock Connect Investment Efficiency Diagram</title>
  <desc id="desc">Clean abstract cover for capital market opening, investment efficiency, and productivity research.</desc>
  <defs>
    <linearGradient id="bg" x1="0" y1="0" x2="1" y2="1">
      <stop offset="0" stop-color="#f7fbff"/>
      <stop offset="1" stop-color="#eef4fb"/>
    </linearGradient>
    <filter id="soft" x="-20%" y="-20%" width="140%" height="140%">
      <feDropShadow dx="0" dy="10" stdDeviation="14" flood-color="#012f63" flood-opacity=".10"/>
    </filter>
  </defs>
  <rect width="720" height="420" rx="30" fill="url(#bg)"/>
  <rect x="70" y="88" width="580" height="256" rx="26" fill="#fff" stroke="#dbe7f4" filter="url(#soft)"/>
  <g transform="translate(112 138)">
    <rect x="0" y="70" width="170" height="94" rx="18" fill="#eef6ff" stroke="#82adcf" stroke-width="7"/>
    <path d="M28 50 C66 16, 112 16, 150 50" fill="none" stroke="#fe667b" stroke-width="10" stroke-linecap="round"/>
    <circle cx="28" cy="50" r="15" fill="#fe667b"/>
    <circle cx="150" cy="50" r="15" fill="#fe667b"/>
    <path d="M42 118 H126" stroke="#012f63" stroke-width="9" stroke-linecap="round"/>
  </g>
  <g transform="translate(330 132)">
    <rect x="0" y="62" width="148" height="136" rx="20" fill="#fff7f8" stroke="#fe667b" stroke-width="7"/>
    <path d="M36 154 V106 M74 154 V84 M112 154 V124" stroke="#fe667b" stroke-width="16" stroke-linecap="round"/>
  </g>
  <g transform="translate(534 144)">
    <rect x="0" y="54" width="126" height="126" rx="20" fill="#eef6ff" stroke="#82adcf" stroke-width="7"/>
    <path d="M24 134 L54 98 L76 116 L106 76" fill="none" stroke="#012f63" stroke-width="10" stroke-linecap="round" stroke-linejoin="round"/>
    <circle cx="106" cy="76" r="15" fill="#fe667b"/>
  </g>
  <path d="M284 254 H330 M478 254 H534" stroke="#c9d7e7" stroke-width="10" stroke-linecap="round"/>
</svg>
