<svg xmlns="http://www.w3.org/2000/svg" viewBox="0 0 720 420" role="img" aria-labelledby="title desc">
  <title id="title">Stock Connect Investment Efficiency Diagram</title>
  <desc id="desc">Simplified capital market opening, efficiency, and productivity diagram.</desc>
  <defs>
    <linearGradient id="bg" x1="0" y1="0" x2="1" y2="1">
      <stop offset="0" stop-color="#f7fbff"/>
      <stop offset="1" stop-color="#eef4fb"/>
    </linearGradient>
    <filter id="shadow" x="-20%" y="-20%" width="140%" height="140%">
      <feDropShadow dx="0" dy="10" stdDeviation="12" flood-color="#012f63" flood-opacity=".11"/>
    </filter>
  </defs>
  <rect width="720" height="420" rx="28" fill="url(#bg)"/>
  <g filter="url(#shadow)">
    <rect x="60" y="102" width="600" height="230" rx="22" fill="#fff" stroke="#dbe7f4"/>
  </g>
  <g transform="translate(108 156)">
    <rect x="0" y="42" width="164" height="92" rx="16" fill="#eef6ff" stroke="#7aa6c8" stroke-width="5"/>
    <path d="M30 28 C66 0, 106 0, 142 28" fill="none" stroke="#fe667b" stroke-width="8" stroke-linecap="round"/>
    <circle cx="30" cy="28" r="12" fill="#fe667b"/>
    <circle cx="142" cy="28" r="12" fill="#fe667b"/>
    <text x="42" y="96" fill="#012f63" font-family="Arial, sans-serif" font-size="24" font-weight="700">SZ-HK</text>
  </g>
  <g transform="translate(326 148)">
    <rect x="0" y="50" width="142" height="132" rx="18" fill="#fff7f8" stroke="#fe667b" stroke-width="5"/>
    <path d="M34 142 V92 M70 142 V72 M106 142 V110" stroke="#fe667b" stroke-width="14" stroke-linecap="round"/>
  </g>
  <g transform="translate(528 156)">
    <rect x="0" y="42" width="124" height="120" rx="18" fill="#eef6ff" stroke="#7aa6c8" stroke-width="5"/>
    <path d="M24 122 L54 88 L74 104 L104 66" fill="none" stroke="#012f63" stroke-width="8" stroke-linecap="round" stroke-linejoin="round"/>
    <circle cx="104" cy="66" r="12" fill="#fe667b"/>
  </g>
  <path d="M274 240 H326 M468 240 H528" stroke="#c9d7e7" stroke-width="8" stroke-linecap="round"/>
  <text x="206" y="72" fill="#012f63" font-family="Arial, sans-serif" font-size="28" font-weight="700">Stock Connect & TFP</text>
</svg>
